<?xml version="1.0" encoding="UTF-8" standalone="no"?>
<!-- Created with Inkscape (http://www.inkscape.org/) -->

<svg
        xmlns:dc="http://purl.org/dc/elements/1.1/"
        xmlns:cc="http://creativecommons.org/ns#"
        xmlns:rdf="http://www.w3.org/1999/02/22-rdf-syntax-ns#"
        xmlns="http://www.w3.org/2000/svg"
        xmlns:sodipodi="http://sodipodi.sourceforge.net/DTD/sodipodi-0.dtd"
        xmlns:inkscape="http://www.inkscape.org/namespaces/inkscape"
        id="svg3234"
        version="1.1"
        inkscape:version="0.92.4 5da689c313, 2019-01-14"
        width="644.88135"
        height="824.53796"
        sodipodi:docname="bit-bot.svg">
    <title
            id="title3154">BitBot
    </title>
    <metadata
            id="metadata3240">
        <rdf:RDF>
            <cc:Work
                    rdf:about="">
                <dc:format>image/svg+xml</dc:format>
                <dc:type
                        rdf:resource="http://purl.org/dc/dcmitype/StillImage"/>
                <dc:title>BitBot</dc:title>
                <dc:date>2011</dc:date>
                <dc:creator>
                    <cc:Agent>
                        <dc:title>Timon Giese</dc:title>
                    </cc:Agent>
                </dc:creator>
                <dc:rights>
                    <cc:Agent>
                        <dc:title/>
                    </cc:Agent>
                </dc:rights>
                <cc:license
                        rdf:resource="http://creativecommons.org/licenses/publicdomain/"/>
            </cc:Work>
            <cc:License
                    rdf:about="http://creativecommons.org/licenses/publicdomain/">
                <cc:permits
                        rdf:resource="http://creativecommons.org/ns#Reproduction"/>
                <cc:permits
                        rdf:resource="http://creativecommons.org/ns#Distribution"/>
                <cc:permits
                        rdf:resource="http://creativecommons.org/ns#DerivativeWorks"/>
            </cc:License>
        </rdf:RDF>
    </metadata>
    <defs
            id="defs3238">
        <filter
                id="filter3284"
                inkscape:label="Invert"
                x="0"
                y="0"
                width="1"
                height="1"
                inkscape:menu="Color"
                inkscape:menu-tooltip="Invert colors"
                style="color-interpolation-filters:sRGB">
            <feColorMatrix
                    id="feColorMatrix3286"
                    type="saturate"
                    values="1"
                    result="fbSourceGraphic"/>
            <feColorMatrix
                    id="feColorMatrix3288"
                    in="fbSourceGraphic"
                    values="-1 0 0 0 1 0 -1 0 0 1 0 0 -1 0 1 0 0 0 1 0 "/>
        </filter>
        <filter
                id="filter3290"
                inkscape:label="Invert"
                x="0"
                y="0"
                width="1"
                height="1"
                inkscape:menu="Color"
                inkscape:menu-tooltip="Invert colors"
                style="color-interpolation-filters:sRGB">
            <feColorMatrix
                    id="feColorMatrix3292"
                    type="saturate"
                    values="1"
                    result="fbSourceGraphic"/>
            <feColorMatrix
                    id="feColorMatrix3294"
                    in="fbSourceGraphic"
                    values="-1 0 0 0 1 0 -1 0 0 1 0 0 -1 0 1 0 0 0 1 0 "/>
        </filter>
        <filter
                id="filter3296"
                inkscape:label="Invert"
                x="0"
                y="0"
                width="1"
                height="1"
                inkscape:menu="Color"
                inkscape:menu-tooltip="Invert colors"
                style="color-interpolation-filters:sRGB">
            <feColorMatrix
                    id="feColorMatrix3298"
                    type="saturate"
                    values="1"
                    result="fbSourceGraphic"/>
            <feColorMatrix
                    id="feColorMatrix3300"
                    in="fbSourceGraphic"
                    values="-1 0 0 0 1 0 -1 0 0 1 0 0 -1 0 1 0 0 0 1 0 "
                    result="fbSourceGraphic"/>
            <feColorMatrix
                    result="fbSourceGraphicAlpha"
                    in="fbSourceGraphic"
                    values="0 0 0 -1 0 0 0 0 -1 0 0 0 0 -1 0 0 0 0 1 0"
                    id="feColorMatrix3362"/>
            <feColorMatrix
                    id="feColorMatrix3364"
                    type="saturate"
                    values="1"
                    result="fbSourceGraphic"
                    in="fbSourceGraphic"/>
            <feColorMatrix
                    id="feColorMatrix3366"
                    in="fbSourceGraphic"
                    values="-1 0 0 0 1 0 -1 0 0 1 0 0 -1 0 1 0 0 0 1 0 "/>
        </filter>
        <filter
                id="filter3302"
                inkscape:label="Invert"
                x="0"
                y="0"
                width="1"
                height="1"
                inkscape:menu="Color"
                inkscape:menu-tooltip="Invert colors"
                style="color-interpolation-filters:sRGB">
            <feColorMatrix
                    id="feColorMatrix3304"
                    type="saturate"
                    values="1"
                    result="fbSourceGraphic"/>
            <feColorMatrix
                    id="feColorMatrix3306"
                    in="fbSourceGraphic"
                    values="-1 0 0 0 1 0 -1 0 0 1 0 0 -1 0 1 0 0 0 1 0 "
                    result="fbSourceGraphic"/>
            <feColorMatrix
                    result="fbSourceGraphicAlpha"
                    in="fbSourceGraphic"
                    values="0 0 0 -1 0 0 0 0 -1 0 0 0 0 -1 0 0 0 0 1 0"
                    id="feColorMatrix3356"/>
            <feColorMatrix
                    id="feColorMatrix3358"
                    type="saturate"
                    values="1"
                    result="fbSourceGraphic"
                    in="fbSourceGraphic"/>
            <feColorMatrix
                    id="feColorMatrix3360"
                    in="fbSourceGraphic"
                    values="-1 0 0 0 1 0 -1 0 0 1 0 0 -1 0 1 0 0 0 1 0 "/>
        </filter>
        <filter
                id="filter3308"
                inkscape:label="Invert"
                x="0"
                y="0"
                width="1"
                height="1"
                inkscape:menu="Color"
                inkscape:menu-tooltip="Invert colors"
                style="color-interpolation-filters:sRGB">
            <feColorMatrix
                    id="feColorMatrix3310"
                    type="saturate"
                    values="1"
                    result="fbSourceGraphic"/>
            <feColorMatrix
                    id="feColorMatrix3312"
                    in="fbSourceGraphic"
                    values="-1 0 0 0 1 0 -1 0 0 1 0 0 -1 0 1 0 0 0 1 0 "/>
        </filter>
        <filter
                id="filter3314"
                inkscape:label="Invert"
                x="0"
                y="0"
                width="1"
                height="1"
                inkscape:menu="Color"
                inkscape:menu-tooltip="Invert colors"
                style="color-interpolation-filters:sRGB">
            <feColorMatrix
                    id="feColorMatrix3316"
                    type="saturate"
                    values="1"
                    result="fbSourceGraphic"/>
            <feColorMatrix
                    id="feColorMatrix3318"
                    in="fbSourceGraphic"
                    values="-1 0 0 0 1 0 -1 0 0 1 0 0 -1 0 1 0 0 0 1 0 "
                    result="fbSourceGraphic"/>
            <feColorMatrix
                    result="fbSourceGraphicAlpha"
                    in="fbSourceGraphic"
                    values="0 0 0 -1 0 0 0 0 -1 0 0 0 0 -1 0 0 0 0 1 0"
                    id="feColorMatrix3374"/>
            <feColorMatrix
                    id="feColorMatrix3376"
                    type="saturate"
                    values="1"
                    result="fbSourceGraphic"
                    in="fbSourceGraphic"/>
            <feColorMatrix
                    id="feColorMatrix3378"
                    in="fbSourceGraphic"
                    values="-1 0 0 0 1 0 -1 0 0 1 0 0 -1 0 1 0 0 0 1 0 "/>
        </filter>
        <filter
                id="filter3320"
                inkscape:label="Invert"
                x="0"
                y="0"
                width="1"
                height="1"
                inkscape:menu="Color"
                inkscape:menu-tooltip="Invert colors"
                style="color-interpolation-filters:sRGB">
            <feColorMatrix
                    id="feColorMatrix3322"
                    type="saturate"
                    values="1"
                    result="fbSourceGraphic"/>
            <feColorMatrix
                    id="feColorMatrix3324"
                    in="fbSourceGraphic"
                    values="-1 0 0 0 1 0 -1 0 0 1 0 0 -1 0 1 0 0 0 1 0 "
                    result="fbSourceGraphic"/>
            <feColorMatrix
                    result="fbSourceGraphicAlpha"
                    in="fbSourceGraphic"
                    values="0 0 0 -1 0 0 0 0 -1 0 0 0 0 -1 0 0 0 0 1 0"
                    id="feColorMatrix3368"/>
            <feColorMatrix
                    id="feColorMatrix3370"
                    type="saturate"
                    values="1"
                    result="fbSourceGraphic"
                    in="fbSourceGraphic"/>
            <feColorMatrix
                    id="feColorMatrix3372"
                    in="fbSourceGraphic"
                    values="-1 0 0 0 1 0 -1 0 0 1 0 0 -1 0 1 0 0 0 1 0 "/>
        </filter>
        <filter
                id="filter3326"
                inkscape:label="Invert"
                x="0"
                y="0"
                width="1"
                height="1"
                inkscape:menu="Color"
                inkscape:menu-tooltip="Invert colors"
                style="color-interpolation-filters:sRGB">
            <feColorMatrix
                    id="feColorMatrix3328"
                    type="saturate"
                    values="1"
                    result="fbSourceGraphic"/>
            <feColorMatrix
                    id="feColorMatrix3330"
                    in="fbSourceGraphic"
                    values="-1 0 0 0 1 0 -1 0 0 1 0 0 -1 0 1 0 0 0 1 0 "/>
        </filter>
        <filter
                id="filter3332"
                inkscape:label="Invert"
                x="0"
                y="0"
                width="1"
                height="1"
                inkscape:menu="Color"
                inkscape:menu-tooltip="Invert colors"
                style="color-interpolation-filters:sRGB">
            <feColorMatrix
                    id="feColorMatrix3334"
                    type="saturate"
                    values="1"
                    result="fbSourceGraphic"/>
            <feColorMatrix
                    id="feColorMatrix3336"
                    in="fbSourceGraphic"
                    values="-1 0 0 0 1 0 -1 0 0 1 0 0 -1 0 1 0 0 0 1 0 "/>
        </filter>
        <filter
                id="filter3338"
                inkscape:label="Invert"
                x="0"
                y="0"
                width="1"
                height="1"
                inkscape:menu="Color"
                inkscape:menu-tooltip="Invert colors"
                style="color-interpolation-filters:sRGB">
            <feColorMatrix
                    id="feColorMatrix3340"
                    type="saturate"
                    values="1"
                    result="fbSourceGraphic"/>
            <feColorMatrix
                    id="feColorMatrix3342"
                    in="fbSourceGraphic"
                    values="-1 0 0 0 1 0 -1 0 0 1 0 0 -1 0 1 0 0 0 1 0 "/>
        </filter>
    </defs>
    <sodipodi:namedview
            pagecolor="#ffffff"
            bordercolor="#666666"
            borderopacity="1"
            objecttolerance="10"
            gridtolerance="10"
            guidetolerance="10"
            inkscape:pageopacity="1"
            inkscape:pageshadow="2"
            inkscape:window-width="1918"
            inkscape:window-height="1176"
            id="namedview3236"
            showgrid="false"
            showguides="true"
            inkscape:guide-bbox="true"
            inkscape:zoom="0.5"
            inkscape:cx="109.90087"
            inkscape:cy="429.62961"
            inkscape:window-x="1921"
            inkscape:window-y="23"
            inkscape:window-maximized="1"
            inkscape:current-layer="svg3234">
        <sodipodi:guide
                orientation="0,1"
                position="334.54217,9.1863875"
                id="guide5846"
                inkscape:locked="false"/>
        <sodipodi:guide
                orientation="0,1"
                position="568.5032,706.30169"
                id="guide3277"
                inkscape:locked="false"/>
    </sodipodi:namedview>
    <path
            style="color:#000000;font-style:normal;font-variant:normal;font-weight:normal;font-stretch:normal;font-size:medium;line-height:normal;font-family:Sans;-inkscape-font-specification:Sans;text-indent:0;text-align:start;text-decoration:none;text-decoration-line:none;letter-spacing:normal;word-spacing:normal;text-transform:none;writing-mode:lr-tb;direction:ltr;baseline-shift:baseline;text-anchor:start;display:inline;overflow:visible;visibility:visible;fill:#ffffff;fill-opacity:1;fill-rule:nonzero;stroke:none;stroke-width:10;marker:none;enable-background:accumulate"
            d="M 322.375,0 C 293.52524,0 265.98583,5.50888 240.65625,15.46875 L 240.25,10.03125 239.84375,4.84375 234.6875,5.4375 c -27.91681,3.15818 -49.08455,21.95779 -63.5,40.125 -13.98205,17.62101 -21.68652,34.66286 -23.21875,38.1875 -7.52653,9.37806 -14.19512,19.46621 -20.15625,30 L 102.75,113.25 100.53125,113.2188 99,114.8438 77.375,138.00005 c -10.21893,0.6721 -18.97383,6.46819 -25.75,14.71875 -7.294233,8.88135 -12.780488,20.65929 -16.90625,33.5 -8.251525,25.68142 -11.051799,55.47538 -8.65625,75.0625 l 0.53125,4.40625 h 4.21875 c 0.129994,0.0138 0.348466,0.0298 0.625,0.0625 0.553068,0.0654 1.33699,0.18636 2.34375,0.3125 2.01352,0.25227 4.852072,0.5966 8.21875,1.03125 0.464331,0.06 1.203401,0.15615 1.6875,0.21875 -0.04998,1.73652 -0.260937,3.91781 -0.8125,6.375 l -13.21875,-2.3438 -3.09375,-0.53125 -0.40625,3.125 -0.28125,2.125 C 2.732334,296.51862 18.394296,329.52755 19,330.78125 l -0.53125,4.09375 -0.3125,2.4375 0.53125,0.1875 c -0.330764,2.05509 -0.779553,4.08342 -1.21875,5.625 -0.225344,-0.0153 -0.443381,-0.0218 -0.65625,0 -0.329238,0.0337 -0.630429,0.11863 -0.875,0.25 -0.978283,0.52556 -1.203703,1.04154 -1.40625,1.40625 -0.202547,0.36471 -0.301543,0.66198 -0.40625,0.96875 -0.418829,1.22708 -0.708976,2.70059 -1.03125,4.78125 -0.644547,4.16133 -1.331568,10.4536 -2.0625,18.3125 -1.461864,15.7178 -3.069088,37.62013 -4.59375,60.28125 -3.049324,45.32225 -5.759256,93.76075 -6.25,100.96875 L 0,532.75 l 2.625,0.5 c 0,0 0.864155,0.15901 1.40625,1.0625 0.542095,0.90349 1.247885,3.30585 -2.21875,9.46875 l -0.4375,0.75 0.0625,0.84375 0.8125,19.09375 0.09375,2.40625 2.375,0.40625 c 0,0 5.625874,1.01071 11.46875,-2.1875 5.267757,-2.88341 10.55421,-9.18846 12.65625,-21.21875 8.879678,2.71229 15.405893,1.67711 23.9375,1.875 1.2464,0.0192 2.45955,-0.82472 2.875,-2 2.61389,-7.2864 3.661,-11.83348 2.65625,-17.5625 -0.21879,-1.18608 -1.22017,-2.18746 -2.40625,-2.40625 -10.18116,-1.94575 -15.402212,-2.19108 -19.96875,-2.3125 6.922918,-7.71305 11.95678,-17.57768 15.40625,-26.28125 2.12009,-5.34932 3.66659,-10.22828 4.6875,-13.78125 0.51046,-1.77649 0.87031,-3.20412 1.125,-4.21875 0.0736,-0.29308 0.10557,-0.46815 0.15625,-0.6875 0.21203,-0.06 0.40916,-0.12974 0.625,-0.1875 l 2.15625,-0.59375 0.0625,-2.21875 c 0.35772,-10.61751 4.8807,-24.39189 6.9375,-37.4375 1.0284,-6.52281 1.43877,-12.92775 0.15625,-18.84375 -1.16034,-5.35239 -3.94548,-10.23907 -8.625,-14 L 59.96875,385.625 c 8.63891,-14.3747 26.0625,-12.65625 26.0625,-12.65625 l 1.1875,-14.59375 c 3.79576,0.334 6.39008,0.53125 6.28125,0.53125 -0.12403,-6.14822 1.33766,-14.85301 3,-24 5.70921,-10.01036 11.92062,-27.91482 1,-48.6875 v -0.125 l 0.25,-2.75 L 95.03125,282.875 86.75,281.40625 c 0.33016,-2.55071 0.95328,-5.87218 2.09375,-8.15625 3.8343,0.50861 12.875,1.6875 12.875,1.6875 l 3.21875,0.40625 c 16.1516,68.0711 63.41222,123.98025 125.96875,152.09375 v 4.15625 17.5625 L 228.8125,450.125 H 223.75 l 0.0625,5.0625 L 224.25,485 c -0.006,0.11191 0.006,0.23215 0,0.34375 -0.36218,7.21374 0.45039,13.83911 0,25.9375 l -0.1875,4.9375 3.84375,-0.71875 0.46875,0.0312 c 0.17542,1.06249 0.33523,2.13308 0.90625,3.3125 1.45467,3.00455 4.73549,4.40761 8.40625,5 l 0.46875,0.0625 h 0.46875 c 4.32429,-0.14643 8.36062,-2.6733 9.5,-5.625 0.28223,-0.73114 0.28996,-1.3065 0.4375,-1.96875 h 5.09375 c 0.7413,2.35945 1.94862,4.2562 3.65625,5.5625 2.84673,2.17768 5.94413,1.8553 8.21875,1.625 l 0.75,-0.0625 0.6875,-0.28125 c 2.81623,-1.17692 4.76355,-2.85393 5.78125,-5.125 0.28048,-0.62591 0.41233,-1.25164 0.59375,-1.875 l 0.84375,-0.0312 4.9375,-0.21875 -0.15625,-4.9375 -0.78125,-24.8125 v -0.0937 l -0.40625,-30 -0.0625,-4.34375 -4.3125,-0.5625 -1.78125,-0.21875 v -9.71875 c 16.31242,3.79703 33.28231,5.9375 50.75,5.9375 16.72068,0 35.5738,-1.42004 51.25,-4.90625 v 10 l -1.75,0.21875 -4.3125,0.5625 -0.0625,4.34375 -0.40625,30 c -0.56237,18.55761 -1.1118,20.28266 -0.78125,24.875 l -0.15625,4.90625 4.90625,0.25 0.84375,0.0312 c 0.18278,0.63272 0.30902,1.27085 0.59375,1.90625 1.0177,2.27107 1.71502,3.26058 4.53125,4.4375 l 0.6875,0.28125 0.75,0.0625 c 2.27647,0.23049 4.0214,0.8276 6.875,-1.34375 1.71587,-1.30561 2.94092,-3.3175 3.6875,-5.6875 h 5.0625 c 0.15074,0.67215 0.17866,1.25744 0.46875,2 1.15178,2.94825 4.92601,6.13483 9.25,6.28125 h 0.46875 l 0.46875,-0.0625 c 3.67076,-0.5924 5.98285,-2.1517 7.4375,-5.15625 0.57101,-1.17942 0.73083,-2.25002 0.90625,-3.3125 l 0.46875,-0.0312 4.8125,-0.0625 -0.0625,-5.125 c -0.45069,-12.10653 0.33086,-18.73825 -0.0312,-25.9375 -0.006,-0.11138 0.006,-0.23208 0,-0.34375 l 0.46875,-29.8125 0.0937,-5.0625 H 413.75 410.5625 v -17.5625 -4.03125 c 63.7246,-27.86069 113.11709,-85.00863 129.34375,-154.03125 l 3.4375,-0.4375 c 0,0 9.05566,-1.17768 12.90625,-1.6875 1.13393,2.29316 1.73787,5.6053 2.0625,8.15625 l -8.28125,1.46875 -2.75,0.46875 0.28125,2.75 v 0.125 c -10.9345,20.79909 -4.6839,38.71577 1.03125,48.71875 1.66088,9.12304 3.12374,17.80389 3,23.9375 -0.10883,0 2.48765,-0.19725 6.28125,-0.53125 l 1.15625,14.625 c 0,0 17.42279,-1.74697 26.0625,12.625 l 1.34375,17.625 c -4.67952,3.76093 -7.49591,8.64761 -8.65625,14 -1.28252,5.916 -0.87215,12.32094 0.15625,18.84375 2.0568,13.04561 6.61103,26.81999 6.96875,37.4375 0.0219,0.77536 0.38091,1.51869 0.93359,2.06055 2.06332,6.99301 9.63346,30.96735 23.20899,45.92187 -4.55665,0.12192 -9.77962,0.35635 -19.89258,2.28906 a 3.0003,3.0003 0 0 0 -2.39258,2.42969 c -1.00439,5.727 0.0179,10.24746 2.63086,17.53125 a 3.0003,3.0003 0 0 0 2.89453,1.98633 c 8.52458,-0.19773 15.04392,0.8286 23.91211,-1.875 2.10289,12.05306 7.40097,18.3638 12.67383,21.25 5.84288,3.19821 11.46875,2.1875 11.46875,2.1875 1.32592,-0.23715 2.40548,-1.46703 2.46875,-2.8125 l 0.8125,-19.09375 c 0.025,-0.5522 -0.10638,-1.11064 -0.375,-1.59375 -3.46663,-6.1629 -2.76084,-8.56526 -2.21875,-9.46875 0.54209,-0.90349 1.40625,-1.0625 1.40625,-1.0625 1.42887,-0.26925 2.53822,-1.70573 2.4375,-3.15625 -0.49074,-7.208 -3.20068,-55.6465 -6.25,-100.96875 -1.52466,-22.66112 -3.16314,-44.56345 -4.625,-60.28125 -0.73093,-7.8589 -1.41795,-14.15117 -2.0625,-18.3125 -0.32227,-2.08066 -0.58117,-3.55417 -1,-4.78125 -0.10471,-0.30677 -0.2037,-0.60404 -0.40625,-0.96875 -0.20255,-0.36471 -0.42797,-0.88069 -1.40625,-1.40625 -0.36685,-0.19709 -0.85656,-0.29469 -1.375,-0.28125 -0.0513,10e-4 -0.1033,0.0258 -0.15625,0.0312 -0.44183,-1.53816 -0.8858,-3.56338 -1.21875,-5.625 l 0.53125,-0.1875 -0.3125,-2.4375 -0.53125,-4.125 c 0.60599,-1.2533 16.28472,-34.26848 -6.90625,-54.71875 l -0.28125,-2.09375 -0.375,-3.125 -3.09375,0.53125 -13.21875,2.34375 c -0.57231,-2.48824 -0.79521,-4.65668 -0.84375,-6.40625 0.49318,-0.0642 1.24604,-0.15752 1.71875,-0.21875 3.36667,-0.43611 6.20527,-0.77813 8.21875,-1.03125 1.00674,-0.12656 1.79075,-0.24686 2.34375,-0.3125 0.2765,-0.0328 0.49512,-0.0486 0.625,-0.0625 h 4.21875 L 619,260.7187 c 2.39555,-19.58712 -0.40473,-49.38108 -8.65625,-75.0625 -4.12576,-12.84071 -9.61202,-24.61865 -16.90625,-33.5 -6.77617,-8.25056 -15.53107,-14.04665 -25.75,-14.71875 l -21.625,-23.15625 -1.53125,-1.625 -2.21875,0.0312 -25.5,0.53125 C 510.8131,102.67555 504.00931,92.63053 496.4375,83.2499 495.48859,81.02061 488.20595,64.22703 474.1875,46.15615 459.7149,27.50013 438.18825,7.7973 409.59375,4.5625 L 404.4375,3.96875 404.03125,9.15625 403.5625,15.25 C 378.38428,5.43584 351.00256,0 322.375,0 Z m 0,10 c 28.34859,0 55.3598,5.54916 80.09375,15.5625 -2.52266,6.88231 -10.97426,13.1755 -24.1875,17.59375 C 364.12653,47.88931 345.35976,50.33226 326.25,50.3125 307.14024,50.2927 287.65433,47.82405 272,43.125 257.67205,38.8241 246.92185,32.47393 242.09375,25.65625 266.88491,15.58538 293.94687,10 322.375,10 Z m 91.25,5.46875 c 22.16764,4.46673 40.02607,20.5312 52.65625,36.8125 9.70906,10.31075 15.10577,25.53871 22.0625,36.84375 8.35911,10.30404 15.74787,21.40095 22.09375,33.15625 l 0.71875,39.78125 0.0312,2 1.40625,1.4375 20.03125,20.1875 v 0.0312 c 0.009,0.0478 0.0226,0.10938 0.0312,0.15625 -0.0829,9.29566 0.84873,16.26725 0.9375,16.875 l 2,32.90625 c -5.08491,91.03521 -66.24514,167.11053 -150.1875,192.59375 -5.68988,2.26193 -5.09661,1.81123 -11.78125,3.78125 -15.63552,3.64725 -34.50032,5.125 -51.25,5.125 -17.50417,0 -34.46803,-2.24159 -50.75,-6.21875 l -13.875,-3.78125 C 175.9042,401.20012 115.42789,327.27191 109.34375,238.34375 L 111.5,203.3125 h -0.0312 c 0.0772,-0.53888 0.94971,-7.68426 0.875,-16.96875 l 0.125,-0.125 20,-20.15625 1.40625,-1.4375 0.0312,-2 0.75,-40.875 c 6.2164,-11.43415 13.40189,-22.25423 21.53125,-32.3125 0.44535,-0.24039 0.53232,-0.74304 0.71875,-1.1875 0.97288,-2.26461 8.59595,-19.41863 22.125,-36.46875 12.54198,-15.80616 30.03301,-31.10134 51.65625,-35.4375 l 0.5,6.6875 0.25,3.46875 0.0937,1.0625 0.5,0.9375 c 6.27537,11.69618 20.18841,19.11293 37.09375,24.1875 16.90534,5.07457 37.17286,7.60437 57.125,7.625 19.95214,0.0206 39.55063,-2.44839 55.21875,-7.6875 15.66812,-5.23911 28.1896,-13.41212 31.25,-26.21875 l 0.0937,-0.375 0.0312,-0.40625 0.21875,-2.84375 z M 325.1875,77.9375 c -12.16597,8.8e-4 -25.62444,1.22845 -41.5625,4.75 -3.15947,8.1305 -1.36317,15.40599 0,22.75 10.61937,12.84023 24.2661,23.47594 39.96875,32.65625 18.2864,-9.74203 33.71679,-21.00631 44.28125,-34.8125 2.61571,-7.41831 2.98554,-14.64487 0.3125,-21.65625 -13.85544,-1.66636 -27.35804,-3.68864 -43,-3.6875 z m 215.09375,44.78125 13.625,14.59375 7.84375,8.40625 0.90625,0.96875 0.125,0.84375 c 0.2176,-0.0296 0.41182,-0.0394 0.625,-0.0625 L 579.5,164.78125 c 0.0337,0.18444 0.13121,0.71663 0.1875,1.0625 l -9.53125,7.46875 c -5.92166,-12.26744 -20.32002,1.41202 -9.53125,8.5 l -9.78125,7.9375 c -0.0423,-0.0111 -0.0826,-0.0202 -0.125,-0.0312 l -8.84375,-8.9063 -0.6875,-0.6875 -0.375,-0.40625 -0.3125,-0.3125 -19.375,-19.5625 -0.6875,-36.6875 z m -435.5,0.5625 19.84375,0.40625 -0.6875,36.71875 -20.09375,20.28125 -0.0312,0.0625 -1.46875,1.46875 -7.96875,8.03125 c -0.0425,0.0112 -0.0826,0.0202 -0.125,0.0312 l -9.78125,-7.90625 c 10.78877,-7.08798 -3.64084,-20.76744 -9.5625,-8.5 l -9.5,-7.46875 c 0.0583,-0.36018 0.15275,-0.90402 0.1875,-1.09375 L 81.6563,148.0312 c 0.21321,0.0231 0.40734,0.0329 0.625,0.0625 l 0.125,-0.84375 0.90625,-0.96875 7.6875,-8.25 z m 333.90625,14.8125 c -45.35517,0 -82.125,39.93373 -82.125,89.21875 0,49.28502 36.76983,89.25 82.125,89.25 45.35517,0 82.125,-39.96498 82.125,-89.25 0,-49.28502 -36.76983,-89.21875 -82.125,-89.21875 z M 205.46875,141.625 c -45.35517,0 -82.125,39.96498 -82.125,89.25 0,49.28502 36.76983,89.21875 82.125,89.21875 45.35517,0 82.125,-39.93373 82.125,-89.21875 0,-49.28502 -36.76983,-89.25 -82.125,-89.25 z m 384.125,22.28125 c 4.40225,6.84227 8.20082,15.41974 11.21875,24.8125 7.24701,22.55506 9.84745,49.32436 8.4375,66.9375 -1.97973,0.25015 -4.41474,0.57314 -7.46875,0.96875 -6.74615,0.87388 -15.61748,2.02322 -24.46875,3.1875 -15.0204,1.97576 -25.76096,3.3842 -29.9375,3.9375 l -1.75,-28.15625 c 0.2115,-3.97464 0.34375,-7.98733 0.34375,-12.03125 0,-8.84376 -0.69023,-17.51395 -1.6875,-26.09375 l 0.3125,0.3125 0.9375,0.9375 1.28125,0.34375 c 12.28982,3.47007 21.52935,3.34372 28.53125,0.375 7.0019,-2.96872 11.10767,-8.80242 13.03125,-14.53125 2.80689,-8.35951 1.90574,-16.9219 1.21875,-21 z M 55.5,164.4375 c -0.68992,4.07779 -1.58156,12.63976 1.21875,21 1.91907,5.72933 6.00016,11.56184 13,14.53125 6.99984,2.96941 16.24157,3.09503 28.53125,-0.375 l 1.28125,-0.34375 0.84375,-0.875 c -0.93374,8.28198 -1.5625,16.65561 -1.5625,25.1875 0,4.96755 0.18085,9.89536 0.5,14.78125 L 97.71875,264.3125 C 93.562,263.76367 82.78753,262.34637 67.75,260.375 c -8.85126,-1.16037 -17.72262,-2.31656 -24.46875,-3.1875 -3.054001,-0.39428 -5.48905,-0.71944 -7.46875,-0.96875 -1.409952,-17.61314 1.190485,-44.38244 8.4375,-66.9375 3.023535,-9.41022 6.83733,-17.99536 11.25,-24.84375 z m 382.46875,25.15625 c 23.45001,0 42.4375,18.3672 42.4375,41 0,22.6328 -18.98749,40.96875 -42.4375,40.96875 -23.45001,0 -42.46875,-18.33595 -42.46875,-40.96875 0,-22.6328 19.01874,-41 42.46875,-41 z m -233.25,3.53125 c 23.45001,0 42.46875,18.3672 42.46875,41 0,22.6328 -19.01874,40.96875 -42.46875,40.96875 -23.45001,0 -42.4375,-18.33595 -42.4375,-40.96875 0,-22.6328 18.98749,-41 42.4375,-41 z m 119.1875,21.1875 c -12.10007,0 -21.78125,10.33822 -21.78125,22.71875 0,12.38054 9.68118,22.625 21.78125,22.625 12.10008,0 21.78125,-10.24446 21.78125,-22.625 0,-12.38053 -9.68117,-22.71875 -21.78125,-22.71875 z m 0,8.03125 c 7.56038,0 13.84375,6.42459 13.84375,14.6875 0,8.26292 -6.28337,14.6875 -13.84375,14.6875 -7.56037,0 -13.78125,-6.42458 -13.78125,-14.6875 0,-8.26291 6.22088,-14.6875 13.78125,-14.6875 z m 289.4375,54.9375 6.96875,55.28125 c -28.08234,9.23533 -35.06979,7.33877 -61.21875,10.90625 l -5.3125,-55.6875 z m -581.625,0.53125 59.5625,10.5 L 85.9375,344 C 59.80768,340.4379 52.81716,342.33775 24.71875,333.09375 Z m 593.9375,71.34375 c 0.12955,0.63276 0.2329,0.8638 0.375,1.78125 0.4882,3.15189 1.02314,8.15312 1.59375,13.96875 h -10.25 V 374.125 H 628.5 c 1.20162,13.64085 2.47302,30.83439 3.71875,49.03125 H 624.125 v 11.625 H 633 c 2.81467,42.4515 5.18853,84.59736 5.75,93.15625 -0.9815,0.59155 -2.06407,1.4297 -2.875,2.78125 -1.85739,3.09566 -1.75067,7.92444 1.71875,14.53125 l -0.65625,15.65625 c -1.37305,-0.1177 -3.20345,-0.50774 -5.1875,-1.59375 -3.99823,-2.1885 -8.71664,-7.20398 -10.13086,-20.51562 a 3.0003,3.0003 0 0 0 -0.004,-0.10938 c 0.0483,0.4585 0.0533,0.45598 -0.006,-0.11914 -1.07475,-10.44033 -1.4947,-21.27141 -3.23633,-31.33203 -0.0812,-0.47119 -0.17254,-0.93661 -0.25977,-1.4043 -0.065,-0.34733 -0.12482,-0.69768 -0.19336,-1.04297 -0.15969,-0.80739 -0.33131,-1.609 -0.51172,-2.40429 -0.18434,-0.81264 -0.38161,-1.61734 -0.58984,-2.41602 -0.22756,-0.87282 -0.46568,-1.73929 -0.72461,-2.59375 -0.68649,-2.26541 -1.51029,-4.46416 -2.49023,-6.57227 -0.24056,-0.52035 -0.5021,-1.02803 -0.76172,-1.53711 -0.0832,-0.16305 -0.15899,-0.33034 -0.24414,-0.49218 -0.001,-0.003 -0.003,-0.005 -0.004,-0.008 -4.29561,-8.15994 -11.16619,-14.74776 -21.91016,-18.15039 -0.82649,-11.55271 -4.98068,-24.42766 -6.80859,-36.02148 -0.97016,-6.15344 -1.24915,-11.87197 -0.21875,-16.625 1.0304,-4.75303 3.19804,-8.54946 7.59375,-11.5625 0.86449,-0.58474 1.38288,-1.6462 1.3125,-2.6875 l -3.59375,-46 c 4.99365,-2.1116 14.00844,-4.38293 22.09375,-6 7.85359,-1.57072 12.97158,-2.31771 14.59375,-2.5625 z M 19.375,349.6875 c 1.603636,0.2419 6.755091,0.98851 14.625,2.5625 8.085308,1.61707 17.1001,3.8884 22.09375,6 l -3.59375,46 -0.125,1.71875 1.4375,0.96875 c 4.39571,3.01304 6.56335,6.80947 7.59375,11.5625 1.0304,4.75303 0.75141,10.47156 -0.21875,16.625 -1.83006,11.60746 -5.99288,24.49932 -6.8125,36.0625 -3.79243,1.20798 -7.080803,2.82344 -9.96875,4.75 -9.103005,5.29763 -14.042843,13.57724 -16.53125,22.96875 -2.795198,10.54937 -2.992703,22.56902 -3.90625,34.53125 -0.01244,0.14499 -0.0187,0.29258 -0.03125,0.4375 -0.0016,0.0208 0.0016,0.0417 0,0.0625 -0.150984,1.74036 -0.322573,3.46392 -0.5,5.1875 -1.386579,13.46957 -6.105751,18.51874 -10.125,20.71875 -1.969432,1.07801 -3.817495,1.44165 -5.1875,1.5625 l -0.6875,-15.5625 c 3.504427,-6.6412 3.613602,-11.48774 1.75,-14.59375 -0.820795,-1.36799 -1.915222,-2.22136 -2.90625,-2.8125 0.562528,-8.57911 2.964911,-50.68886 5.78125,-93.125 h 8.875 v -11.59375 h -8.09375 c 1.241443,-18.1946 2.490643,-35.3872 3.6875,-49.03125 H 27.6875 v -9.25 H 17.375 c 0.587581,-5.93383 1.16092,-10.7708 1.65625,-13.96875 0.141848,-0.9158 0.214373,-1.14901 0.34375,-1.78125 z m 219.6875,87.15625 16.90625,0.25 c 0.0192,0.006 0.0433,-0.006 0.0625,0 1.85943,0.57583 6.25441,1.44614 8.125,1.96875 v 0.0625 16.5625 4.40625 l 4.375,0.5625 1.84375,0.21875 0.34375,25.75 v 0.0625 0.0312 l 0.625,19.96875 -4.71875,0.21875 v 4.75 c -0.24142,6.46454 -6.2546,4.5153 -6.21875,1 l 0.0937,-5.125 c -6.58119,-0.0486 -12.43089,0.21662 -18.75,-0.25 l -0.1875,4.125 c -0.17619,1.85155 -0.32102,3.23178 -0.46875,3.6875 0.21099,2.88285 -5.48105,3.01976 -5.71875,-0.21875 0.0135,0.0278 -0.23861,-1.40181 -0.28125,-3.84375 L 235,506.37495 l -3.59375,-0.5 h -0.0937 c 0.10772,-9.38462 -0.28557,-15.98623 0,-21.15625 v -0.1875 -0.15625 l -0.375,-25.09375 h 3.125 5 v -5 z M 401.78125,437.5 v 17.4375 5 h 5 3.09375 l -0.375,25.09375 v 0.15625 0.1875 c 0.28625,5.18297 -0.11444,11.77787 0,21.15625 h -0.0625 l -2.1875,0.25 -0.0937,4.65625 c -0.0427,2.44196 -0.29471,3.87155 -0.28125,3.84375 -0.0814,4.53257 -5.9412,4.01662 -5.875,0.0625 -0.15267,-0.44576 -0.29277,-1.83811 -0.46875,-3.6875 l -0.0625,-2.5625 -3.875,0.0937 -11.40625,-0.1875 -1.59375,-0.0312 -0.28125,3.1875 c 0.0444,2.52287 -0.2297,2.812 -0.3125,2.875 -1.51483,1.73207 -5.10642,2.02801 -5.1875,-0.5625 -0.24719,-0.55161 -0.4654,-1.59078 -0.46875,-2.625 V 507.125 h -3.46875 l 0.625,-19.96875 v -0.0312 -0.0625 l 0.34375,-25.75 1.8125,-0.21875 4.375,-0.5625 v -4.40625 -16.71875 -0.125 c 1.67901,-0.46107 3.37862,-0.88306 5.03125,-1.375 l 0.0937,-0.0312 z M 210.375,446.1875 c -0.27213,0.0201 -0.54937,0.0512 -0.8125,0.125 -1.05251,0.2951 -1.83745,0.91865 -2.40625,1.5625 -2.27521,2.5754 -2.89481,6.06298 -3.71875,11 -1.64787,9.87404 -2.41889,25.06844 -2.625,41.6875 -0.20611,16.61906 0.15108,34.57241 0.875,49.59375 0.61792,12.82185 1.45031,23.26069 2.53125,29.46875 -0.0932,-0.0148 -0.18708,-0.0254 -0.28125,-0.0312 -0.10407,-0.005 -0.20843,-0.005 -0.3125,0 -1.39632,0.11108 -2.62297,1.32379 -2.75,2.71875 -3.91717,40.19205 -8.31477,99.61699 -7.59375,162.0625 0.003,0.12549 0.013,0.25082 0.0312,0.375 0,0 0.40456,3.341 1.75,7.90625 l -4.96875,-0.0625 -2.65625,-0.0312 -0.34375,2.65625 c 0,0 -1.8477,14.27461 -3.28125,28.90625 -0.71677,7.31582 -1.32003,14.72093 -1.5625,20.53125 -0.12123,2.90516 -0.14603,5.39027 -0.0312,7.375 0.0573,0.99236 0.13576,1.87301 0.3125,2.6875 0.17674,0.81449 0.15188,1.67937 1.53125,2.78125 1.43243,1.14427 2.37794,1.24172 4.125,1.71875 1.74706,0.47703 4.01489,0.97866 6.78125,1.46875 5.53272,0.98019 13.05314,1.91732 22.0625,2.5 18.01873,1.16536 41.9718,0.8368 67.5,-3.8125 l 2,-0.34375 0.40625,-1.96885 c 0,0 3.95696,-18.63445 1.1875,-42.4375 0.67253,-0.38234 1.48223,-0.94236 2.375,-1.75 1.81489,-1.64183 3.96858,-4.28207 5.96875,-8.46875 3.9948,-8.36175 7.42743,-22.77519 6.53125,-47.875 v -0.0625 c -4.2e-4,-0.0116 4.2e-4,-0.0196 0,-0.0312 L 302.34375,583.7813 c 0.003,-1.63524 -1.55544,-3.10203 -3.1875,-3 2.87953,-20.61466 4.30801,-52.64612 3.28125,-79.875 -0.52704,-13.97665 -1.68102,-26.63984 -3.71875,-35.96875 -1.01887,-4.66445 -2.23474,-8.49183 -3.90625,-11.40625 -0.83575,-1.45721 -1.80808,-2.70722 -3.09375,-3.65625 -1.28567,-0.94903 -3.00126,-1.51513 -4.6875,-1.34375 -1.21976,0.13224 -2.30686,1.08835 -2.59375,2.28125 -2.1839,8.90265 -1.94835,21.91757 -1.78125,35.90625 0.15615,13.07229 0.24462,26.79937 -1.21875,37.96875 -2.22885,0.15335 -15.63085,1.10738 -31.25,1.71875 -8.43417,0.33015 -16.88254,0.54586 -23.125,0.40625 -3.12123,-0.0698 -5.71321,-0.23324 -7.34375,-0.46875 -0.20075,-0.0289 -0.20512,-0.062 -0.375,-0.0937 0.14505,-18.14129 0.5998,-34.26694 0.5,-46.875 -0.10387,-13.12082 -0.54128,-22.57214 -3.3125,-28.53125 -0.0386,-0.0746 -0.0803,-0.14763 -0.125,-0.21875 -0.99591,-1.77774 -1.90035,-3.17381 -3.6875,-4.03125 -0.44679,-0.21436 -0.98454,-0.34755 -1.53125,-0.40625 -0.27335,-0.0294 -0.54037,-0.0201 -0.8125,0 z m 221.90625,0.75 c -0.27213,-0.0201 -0.53914,0.002 -0.8125,0.0312 -0.54671,0.0587 -1.08446,0.19189 -1.53125,0.40625 -1.78715,0.85744 -2.69159,2.25351 -3.6875,4.03125 -0.0447,0.0711 -0.0864,0.14413 -0.125,0.21875 -2.77122,5.95911 -3.20863,15.41043 -3.3125,28.53125 -0.0998,12.60806 0.35495,28.73371 0.5,46.875 -0.16988,0.0317 -0.17425,0.0648 -0.375,0.0937 -1.63054,0.23551 -4.22252,0.39895 -7.34375,0.46875 -6.24246,0.13961 -14.69083,-0.0761 -23.125,-0.40625 -15.61915,-0.61137 -29.02115,-1.5654 -31.25,-1.71875 -1.46337,-11.16938 -1.3749,-24.89646 -1.21875,-37.96875 0.1671,-13.98868 0.40265,-27.0036 -1.78125,-35.90625 -0.28689,-1.1929 -1.37399,-2.14901 -2.59375,-2.28125 -1.68624,-0.17138 -3.40183,0.39472 -4.6875,1.34375 -1.28567,0.94903 -2.258,2.19904 -3.09375,3.65625 -1.67151,2.91442 -2.88738,6.7418 -3.90625,11.40625 -2.03773,9.32891 -3.19171,21.9921 -3.71875,35.96875 -1.02676,27.22888 0.40172,59.26034 3.28125,79.875 -1.63206,-0.10203 -3.19052,1.36476 -3.1875,3 l -0.65625,132.65625 c -4.2e-4,0.0116 4.2e-4,0.0196 0,0.0312 v 0.0625 c -0.89618,25.09981 2.53645,39.51325 6.53125,47.875 2.00017,4.18668 4.15386,6.82692 5.96875,8.46875 0.90744,0.82091 1.72721,1.39897 2.40625,1.78125 -2.76241,23.78824 1.1875,42.40625 1.1875,42.40625 l 0.40625,1.96875 2,0.34375 c 25.52809,4.64928 49.45773,4.97787 67.46875,3.8125 9.00551,-0.58268 16.53263,-1.55104 22.0625,-2.53125 2.76493,-0.49011 5.03501,-0.96044 6.78125,-1.4375 1.74624,-0.47706 2.69351,-0.57523 4.125,-1.71875 1.37937,-1.10188 1.35451,-1.96676 1.53125,-2.78125 0.17674,-0.81449 0.25516,-1.69514 0.3125,-2.6875 0.11468,-1.98473 0.0899,-4.46984 -0.0312,-7.375 -0.24247,-5.81032 -0.84573,-13.21543 -1.5625,-20.53125 C 457.41015,770.27476 455.5625,756 455.5625,756 l -0.34375,-2.65625 -2.65625,0.0312 -4.96875,0.0625 c 1.34544,-4.56525 1.75,-7.90625 1.75,-7.90625 0.0183,-0.12418 0.0288,-0.24951 0.0312,-0.375 0.72102,-62.44551 -3.67658,-121.87045 -7.59375,-162.0625 -0.14051,-1.49582 -1.56057,-2.75648 -3.0625,-2.71875 -0.0837,0.007 -0.16715,0.0173 -0.25,0.0312 1.08062,-6.20852 1.8822,-16.64945 2.5,-29.46875 0.72392,-15.02134 1.08111,-32.97469 0.875,-49.59375 -0.20611,-16.61906 -0.97713,-31.81346 -2.625,-41.6875 -0.82394,-4.93702 -1.44354,-8.4246 -3.71875,-11 -0.5688,-0.64385 -1.35374,-1.2674 -2.40625,-1.5625 -0.26313,-0.0738 -0.54037,-0.1361 -0.8125,-0.15625 z M 211.0625,453.375 c 0.0419,0.0652 0.0196,0.0223 0.0625,0.0937 1.68459,3.71458 2.61703,13.08763 2.71875,25.9375 0.10236,12.9308 -0.40681,29.56447 -0.53125,48.71875 0.01,0.0419 0.0199,0.0836 0.0312,0.125 0.0479,1.14448 0.71321,2.07422 1.25,2.53125 0.53679,0.45703 0.99157,0.67213 1.4375,0.84375 0.89186,0.34325 1.793,0.50449 2.84375,0.65625 2.10151,0.30353 4.81867,0.45875 8.0625,0.53125 6.48767,0.14509 14.97305,-0.0737 23.46875,-0.40625 16.99139,-0.66509 33.9375,-1.84375 33.9375,-1.84375 1.34151,-0.0962 2.54318,-1.20229 2.75,-2.53125 1.94717,-12.35998 1.72954,-27.39148 1.5625,-41.375 -0.13985,-11.70733 -0.14671,-22.52601 0.90625,-30.15625 0.0106,0.0183 0.0206,0.0127 0.0312,0.0312 1.12551,1.96243 2.30228,5.34877 3.25,9.6875 1.89544,8.67746 3.07428,21.16178 3.59375,34.9375 1.02181,27.09741 -0.49774,59.27069 -3.34375,79.25 -0.0831,0.0329 -0.0607,0.0285 -0.15625,0.0625 -0.76897,0.27338 -2.03741,0.6059 -3.5,0.9375 -24.00856,1.44012 -47.404,1.99349 -68.03125,0.28125 -3.7275,-0.66906 -7.43975,-1.48127 -11.0625,-2.4375 -0.94649,-4.82705 -1.99343,-15.62152 -2.65625,-29.375 -0.71762,-14.89055 -1.07933,-32.74331 -0.875,-49.21875 0.20433,-16.47544 1.00127,-31.64487 2.53125,-40.8125 0.51897,-3.10966 1.20606,-5.13277 1.71875,-6.46875 z m 220.53125,0.78125 c 0.51269,1.33598 1.19978,3.35909 1.71875,6.46875 1.52998,9.16763 2.32692,24.33706 2.53125,40.8125 0.20433,16.47544 -0.15738,34.3282 -0.875,49.21875 -0.66282,13.75348 -1.70976,24.54795 -2.65625,29.375 -3.62233,0.95612 -7.30419,1.76849 -11.03125,2.4375 -20.64461,1.71426 -44.06332,1.16147 -68.09375,-0.28125 -1.44906,-0.32931 -2.70484,-0.66591 -3.46875,-0.9375 -0.0955,-0.034 -0.0731,-0.0296 -0.15625,-0.0625 -2.84601,-19.97931 -4.36556,-52.15259 -3.34375,-79.25 0.51947,-13.77572 1.69831,-26.26004 3.59375,-34.9375 0.94772,-4.33873 2.12449,-7.72507 3.25,-9.6875 0.0107,-0.0186 0.0206,-0.0131 0.0312,-0.0312 1.05296,7.63024 1.0461,18.44892 0.90625,30.15625 -0.16704,13.98352 -0.38467,29.01502 1.5625,41.375 0.20682,1.32896 1.40849,2.43504 2.75,2.53125 0,0 16.94611,1.17866 33.9375,1.84375 8.4957,0.33254 16.98108,0.55134 23.46875,0.40625 3.24383,-0.0725 5.96099,-0.22772 8.0625,-0.53125 1.05075,-0.15176 1.95189,-0.313 2.84375,-0.65625 0.44593,-0.17162 0.90071,-0.38672 1.4375,-0.84375 0.53679,-0.45703 1.20209,-1.38677 1.25,-2.53125 0.0113,-0.0414 0.0217,-0.0831 0.0312,-0.125 -0.12424,-19.15438 -0.63351,-35.788 -0.53115,-48.7188 0.10172,-12.84987 1.03416,-22.22292 2.71875,-25.9375 0.0429,-0.0714 0.0206,-0.0285 0.0625,-0.0937 z m -181.09375,6.75 c -7.0785,0.0999 -12.72213,5.77257 -12.625,12.65625 0.0971,6.88368 5.9215,12.38113 13,12.28125 7.0785,-0.0999 12.72213,-5.77257 12.625,-12.65625 -0.0971,-6.88368 -5.9215,-12.38113 -13,-12.28125 z m 141.65625,0.78125 c -7.0785,-0.0999 -12.90287,5.39757 -13,12.28125 -0.0971,6.88368 5.57775,12.55637 12.65625,12.65625 7.0785,0.0999 12.87162,-5.39757 12.96875,-12.28125 0.0971,-6.88368 -5.5465,-12.55637 -12.625,-12.65625 z m 201.01172,16.29102 c 7.17521,3.23052 11.62585,8.14947 14.62305,14.42968 0.0287,0.0607 0.0575,0.12068 0.0859,0.18164 0.18336,0.38942 0.35664,0.78779 0.5293,1.1875 0.10847,0.25339 0.21779,0.50625 0.32227,0.76368 0.11036,0.26968 0.21818,0.54228 0.32421,0.8164 0.17777,0.463 0.35113,0.93092 0.51758,1.40625 0.0452,0.12837 0.0904,0.2555 0.13477,0.38477 0.22154,0.64832 0.43554,1.30623 0.63867,1.97656 0.63351,2.09058 1.16018,4.28565 1.61133,6.56055 0.13302,0.67819 0.26111,1.36233 0.38086,2.05468 0.002,0.0105 0.004,0.0207 0.006,0.0312 1.1e-4,6.4e-4 -1.1e-4,10e-4 0,0.002 0.51035,2.95657 0.90661,6.03645 1.25,9.1914 -10.10143,-11.35639 -17.18757,-29.43143 -20.42383,-38.98632 z m -542.88672,1.61523 c -0.0183,0.0639 -0.0126,0.0914 -0.0312,0.15625 -0.97905,3.40727 -2.47191,8.10156 -4.5,13.21875 -3.304413,8.33756 -8.193745,17.60426 -14.3125,24.46875 0.692655,-6.37116 1.625654,-12.42091 3.25,-17.78125 2.265431,-7.47592 5.650166,-13.59639 11.59375,-17.96875 1.226854,-0.76055 2.54249,-1.46153 4,-2.09375 z m 206.71875,11 -12.0625,0.0312 0.0312,12.84375 12.03125,-0.125 z m 128.65625,0.78125 0.0312,12.75 12,0.125 0.0312,-12.84375 z m 228.85547,35.3457 c 0.28945,3.45671 0.58285,6.95372 0.91992,10.45899 -7.46515,2.48087 -13.09887,1.9876 -20.98437,2.0039 -1.49051,-4.37595 -2.224,-7.39332 -1.98633,-10.40039 11.43996,-2.02146 16.0457,-1.7009 22.05078,-2.0625 z M 30.53125,527.25 c 6.037492,0.37099 10.594471,0.0363 22.0625,2.0625 0.23979,3.01842 -0.47629,6.05075 -1.96875,10.4375 -7.911265,-0.0175 -13.538099,0.46755 -21.03125,-2.03125 0.337242,-3.50662 0.647938,-7.01072 0.9375,-10.46875 z M 206.5625,586 c 4.13451,0.61416 8.40701,1.10627 12.78125,1.5 16.74872,3.10205 33.87787,3.45989 47.78125,2.6875 8.69417,-0.48299 16.12098,-1.40999 21.4375,-2.4375 0.77486,-0.14976 1.50563,-0.28349 2.1875,-0.4375 1.87431,-0.11445 3.74563,-0.21967 5.625,-0.34375 l 0.1875,37.71875 -17.84375,2.9375 0.75,16.03125 17.15625,-3.25 0.375,76.15625 c -4.9e-4,0.0312 -4.9e-4,0.0625 0,0.0937 0.88668,24.53536 -2.52772,38.01905 -5.9375,45.15625 -0.84776,1.77449 -1.68752,3.14443 -2.46875,4.21875 -0.73539,-22.05147 0.1913,-41.99943 0.25,-63.21875 -1.6e-4,-1.57075 -1.42925,-2.99984 -3,-3 L 214.5,699.84365 c -1.52995,-10e-4 -2.93611,1.34639 -3,2.875 l -2.25,50.0625 -0.125,2.90625 -0.375,8.28125 -0.0625,1.65625 c -6.98318,-8.0594 -9.33745,-21.13333 -9.40625,-21.53125 -0.42239,-37.20886 1.00198,-73.26441 3.03125,-104.8125 l 17.5,3.53125 0.6875,-16.09375 -17.125,-2.96875 c 1.01488,-13.7572 2.10717,-26.47484 3.1875,-37.75 z m 229.53125,0.78125 c 1.07949,11.26634 2.17327,23.974 3.1875,37.71875 l -17.125,3 0.71875,16.09375 17.46875,-3.53125 c 2.02928,31.54818 3.45364,67.60349 3.03125,104.8125 -0.0688,0.39792 -2.42307,13.47185 -9.40625,21.53125 l -0.4375,-9.9375 -0.125,-2.90625 -2.25,-50.0625 c -0.0639,-1.52861 -1.47005,-2.87618 -3,-2.875 l -71.34375,-0.0312 c -1.57075,1.6e-4 -2.99984,1.42925 -3,3 0.0587,21.21932 0.98539,41.16728 0.25,63.21875 -0.78123,-1.07432 -1.62099,-2.44426 -2.46875,-4.21875 -3.40978,-7.1372 -6.82418,-20.62089 -5.9375,-45.15625 4.9e-4,-0.0312 4.9e-4,-0.0625 0,-0.0937 l 0.375,-76.15625 17.15625,3.25 0.75,-16.0625 -17.84375,-2.90625 0.1875,-37.71875 c 1.94179,0.1282 3.87615,0.22585 5.8125,0.34375 0.63499,0.1416 1.28592,0.29949 2,0.4375 5.31652,1.02751 12.74333,1.95451 21.4375,2.4375 13.87799,0.77098 30.96799,0.39888 47.6875,-2.6875 4.40697,-0.39505 8.71106,-0.88147 12.875,-1.5 z M 257.25,705.8125 h 13.4375 l -0.46875,17.25 c -1.69804,2.3972 -4.71264,4.35733 -8.71875,5.625 -4.30266,1.3615 -9.5542,1.92131 -14.5625,1.71875 -5.0083,-0.20256 -9.82054,-1.17522 -13.1875,-2.59375 -3.36696,-1.41853 -4.81305,-3.12957 -4.9375,-4.15625 -1.26566,-10.44164 -0.50901,-17.72622 -0.5,-17.8125 h 12.53125 v 17.75 H 257.25 Z m 19.46875,0 h 6.09375 c -0.10791,15.9212 -0.66576,31.32636 -0.53125,47.71875 h -0.59375 l -7.3125,-0.0625 -0.15625,-16.28125 -0.0312,-2.96875 h -2.9688 -7.40625 c 4.95417,-1.65213 9.3993,-4.313 11.96875,-8.5625 l 0.40625,-0.6875 v -0.78125 z m -59.34375,0.0312 h 4.9375 c -0.13092,1.56963 -0.63321,8.66662 0.5625,18.53125 0.53125,4.38276 4.25946,7.15584 8.5625,8.96875 0.74899,0.31556 1.53571,0.60734 2.34375,0.875 H 226.5 223.625 l -0.125,2.875 -0.65625,15.84375 -7.5625,-0.0937 z m 142.46875,0.75 h 6.09375 l 0.53125,18.375 v 0.78125 l 0.40625,0.6875 c 2.56945,4.2495 7.01458,6.91037 11.96875,8.5625 h -7.40625 -2.96875 l -0.0312,2.96875 -0.15625,16.28125 -7.28125,0.0625 h -0.625 c 0.13451,-16.39239 -0.42334,-31.79755 -0.53125,-47.71875 z m 12.125,0 h 13.4375 v 17.7813 h 16.40625 v -17.75 h 12.53125 c 0.009,0.0863 0.76566,7.37086 -0.5,17.8125 -0.12445,1.02668 -1.57054,2.73772 -4.9375,4.15625 -3.36696,1.41853 -8.1792,2.39119 -13.1875,2.59375 -5.0083,0.20256 -10.25984,-0.35725 -14.5625,-1.71875 -4.00611,-1.26767 -7.02071,-3.2278 -8.71875,-5.625 z m 48.40625,0.0312 h 4.90625 l 2.09375,47 -7.5625,0.0937 -0.65625,-15.84375 -0.125,-2.875 h -2.875 -7.28125 c 0.80804,-0.26766 1.59476,-0.55944 2.34375,-0.875 4.30304,-1.81291 8.03125,-4.58599 8.5625,-8.96875 1.19542,-9.86227 0.72482,-16.95919 0.59375,-18.53125 z m -191,33.59375 h 38.875 l 0.125,13.1875 0.0312,3.0625 0.0937,11.21875 -3.09375,0.65625 -2.375,0.5 v 2.4375 11.8125 h 6 v -9.375 l 3.09385,-0.65615 h 0.0312 l 2.40625,-0.5 -0.0312,-2.46875 -0.0937,-10.625 4.78125,0.0312 c 3.64847,14.70619 4.15002,28.35474 3.75,38.40625 -34.42142,9.11336 -85.04335,3.05291 -94.40625,1.8125 0.2976,-4.6056 0.71005,-9.80797 1.21875,-15 1.29075,-13.17409 2.64929,-23.8148 2.9375,-26.09375 l 4.46875,0.0312 c 2.28837,5.37148 5.85525,11.13682 11.34375,15.0625 0.0489,0.0351 0.10704,0.0589 0.15625,0.0937 0.37201,0.26217 0.7353,0.53684 1.125,0.78125 0.16708,0.1112 0.34535,0.20558 0.53125,0.28125 l 3.84375,2.4375 0.21875,-5.125 v -0.0312 l 0.59375,-13.3125 7.59375,0.0937 -0.53125,13.0625 -0.15625,3.40625 3.40625,-0.28125 3.3125,-0.28125 -0.21875,9.0625 6,0.125 0.28125,-12.40625 0.0625,-3.34375 -3.3125,0.28125 -3.25,0.28125 0.53125,-12.75 0.125,-3.09375 z m 145.03125,0.78125 h 38.875 l 0.53125,12.78135 0.0312,0.9375 0.0937,2.15625 0.53125,12.75 -3.25,-0.28125 -3.3125,-0.28125 0.0625,3.34375 0.28125,12.40625 6,-0.125 -0.21875,-9.0625 3.3125,0.28125 h 0.0312 l 3.375,0.28125 h 0.0312 l -0.15625,-3.40625 -0.5625,-13.0625 7.59375,-0.0937 0.59375,13.3125 v 0.0312 c -5e-5,0.0104 -5e-5,0.0208 0,0.0312 l 0.21875,5.09375 4.0625,-2.5625 0.0937,-0.0312 c 0.0746,-0.0386 0.14763,-0.0803 0.21875,-0.125 0.3897,-0.24441 0.75299,-0.51908 1.125,-0.78125 0.0492,-0.0348 0.10737,-0.0586 0.15625,-0.0937 0.3257,-0.23296 0.6252,-0.47316 0.9375,-0.71875 4.95033,-3.89285 8.25368,-9.29103 10.40625,-14.34375 l 4.46875,-0.0312 c 0.28821,2.27895 1.64675,12.91966 2.9375,26.09375 0.5087,5.19203 0.92115,10.3944 1.21875,15 -9.36026,1.24006 -59.95389,7.28971 -94.375,-1.8125 -0.40002,-10.05151 0.10153,-23.70006 3.75,-38.40625 l 4.75,-0.0312 -0.0937,10.625 v 2.4375 0.0312 l 2.40625,0.5 3.09375,0.65625 v 9.375 h 6 v -11.8126 -2.4375 l -2.375,-0.5 -3.0625,-0.65625 0.0937,-11.21875 0.0312,-3.0625 h -0.0312 z m -125.5,2.9375 c -6.57859,0.0928 -11.84027,5.35247 -11.75,11.75 0.0903,6.39753 5.51516,11.49908 12.09375,11.40625 6.57859,-0.0928 11.84027,-5.35247 11.75,-11.75 -0.0903,-6.39753 -5.51516,-11.49908 -12.09375,-11.40625 z M 393.75,744.71865 c -6.57859,-0.0928 -11.97223,5.00872 -12.0625,11.40625 -0.0903,6.39753 5.17141,11.65717 11.75,11.75 6.57859,0.0928 11.97223,-5.00872 12.0625,-11.40625 0.0903,-6.39753 -5.17141,-11.65717 -11.75,-11.75 z m -111.15625,59.5 c -0.40505,4.70579 -0.94191,8.07098 -1.21875,9.59375 -24.13036,4.17784 -46.83296,4.48123 -63.9375,3.375 -8.80321,-0.56934 -16.13781,-1.50413 -21.40625,-2.4375 -2.63422,-0.46668 -4.76243,-0.90632 -6.25,-1.3125 -1.08886,-0.29731 -1.28691,-0.44258 -1.4375,-0.46875 -0.0515,-0.34045 -0.12202,-0.68875 -0.15625,-1.28125 -0.0833,-1.4414 -0.057,-3.53497 0.0312,-5.9375 11.20218,1.51117 59.09044,7.156 94.375,-1.53125 z m 77.5,0.78125 c 35.28406,8.68537 83.14213,3.04234 94.34375,1.53125 0.0882,2.40253 0.11458,4.4961 0.0312,5.9375 -0.0342,0.5925 -0.10471,0.9408 -0.15625,1.28125 -0.15062,0.0263 -0.34929,0.17146 -1.4375,0.46875 -1.48668,0.40615 -3.61728,0.84583 -6.25,1.3125 -5.26544,0.93334 -12.57575,1.86816 -21.375,2.4375 -17.09685,1.10622 -39.80747,0.80285 -63.9375,-3.375 -0.27684,-1.52277 -0.8137,-4.88796 -1.21875,-9.59375 z"
            id="path3244"
            inkscape:connector-curvature="0"/>
    <g
            id="g5336"
            transform="translate(-66.840043,-105.21999)"/>
    <g
            id="g5398"
            transform="translate(-47.273286,-104.3555)"/>
    <g
            id="g5413"
            transform="translate(-55.430141,-103.80867)"/>
    <g
            id="g5351"
            transform="matrix(-1,0,0,1,709.50893,-105.99851)"/>
</svg>
